<svg id="Layer_1" data-name="Layer 1" xmlns="http://www.w3.org/2000/svg" viewBox="0 0 664.4 105"><defs><style>.cls-1{fill:#6b6b6b;}.cls-2{fill:#aaa;}.cls-3{fill:#35b89b;}.cls-4{fill:#fab156;}.cls-5{fill:#acabab;}.cls-6{fill:#ed6a4c;}</style></defs><title>logo_transempregos_final</title><path class="cls-1" d="M437.09,387.35a1,1,0,0,1,1.1,1.1v7.71a1,1,0,0,1-1.1,1.1H425.88V421.6c0,3.4,1.5,5.31,3.91,5.31a7.46,7.46,0,0,0,2.6-.4,1,1,0,0,1,1.5.5l3.2,6.81a1.08,1.08,0,0,1-.5,1.5,14.89,14.89,0,0,1-6.81,1.7c-9.51,0-15-5.71-15-15.42V397.27h-4.91a1,1,0,0,1-1.1-1.1v-7.71a1,1,0,0,1,1.1-1.1h4.91V375.84a1.18,1.18,0,0,1,.9-1.2l8.91-3a0.89,0.89,0,0,1,1.3.9v14.82h11.21Z" transform="translate(-298.23 -356)"/><path class="cls-1" d="M469,395.26a1,1,0,0,1-1.1,1.1c-10.91.5-15.72,8.11-15.72,26.53v11.92a1,1,0,0,1-1.1,1.1h-8.91a1,1,0,0,1-1.1-1.1V388.45a1,1,0,0,1,1.1-1.1h5a1.22,1.22,0,0,1,1.3.9L450,394c0.6,1.1,1.1,1.3,2,.3,4-5.21,8.51-7.71,15.82-7.91a1,1,0,0,1,1.1,1.1v7.81Z" transform="translate(-298.23 -356)"/><path class="cls-1" d="M477.3,387.85a37.35,37.35,0,0,1,10.91-1.5c13.52,0,21.83,7,21.83,19.13v29.34a1,1,0,0,1-1.1,1.1h-5a1.22,1.22,0,0,1-1.3-.9l-0.8-3.1c-0.6-1.4-1.2-1.4-2.5-.2-3.1,3.4-7.61,5.31-13.72,5.31-11.11,0-17.32-5.71-17.32-15.12s6.41-15.42,18.22-15.42H499v-0.6c0-6.11-3.91-9.41-11.31-9.41a27.34,27.34,0,0,0-7.81,1l-3.6,1.1a1,1,0,0,1-1.4-.8l-2.2-7.41a1,1,0,0,1,.8-1.4Zm9.21,27.33c-4.91,0-7.21,2.3-7.21,5.71,0,3.91,2.7,6.31,7.51,6.31,7.91,0,12.22-3.91,12.22-11.31v-0.7H486.51Z" transform="translate(-298.23 -356)"/><path class="cls-1" d="M522,392.36c0.6,1.2,1.2,1.1,2.3.1a18,18,0,0,1,13.82-6.11c11.41,0,18.32,7.11,18.32,18.92v29.54a1,1,0,0,1-1.1,1.1h-8.91a1,1,0,0,1-1.1-1.1V406.48c0-6.31-3.3-10.11-8.71-10.11-7.41,0-11.71,5.41-11.71,15.12v23.33a1,1,0,0,1-1.1,1.1h-8.91a1,1,0,0,1-1.1-1.1V388.45a1,1,0,0,1,1.1-1.1h5a1.06,1.06,0,0,1,1.2,1Z" transform="translate(-298.23 -356)"/><path class="cls-1" d="M572.94,414.39c-8.31-2.1-12.22-6.41-12.22-13.62,0-9,6.71-14.42,18.32-14.42a49.87,49.87,0,0,1,12.42,1.6l4.41,1.1a1,1,0,0,1,.8,1.4l-2.1,7.51a1,1,0,0,1-1.4.8l-4.41-1.2a38.54,38.54,0,0,0-9.71-1.2c-4.61,0-7.31,1.7-7.31,4.41,0,2.3,1.4,3.7,4.51,4.61l10,2.6c8.71,2.2,12.62,6.71,12.62,13.92,0,9.41-7,15.12-18.82,15.12a56,56,0,0,1-15.32-2.1l-3.9-1.1a1,1,0,0,1-.8-1.4l2.3-7.51a1,1,0,0,1,1.3-.7l3.6,1a51.84,51.84,0,0,0,12.82,1.7c4.91,0,7.71-1.9,7.71-5,0-2.4-1.4-3.91-4.71-4.91Z" transform="translate(-298.23 -356)"/><path class="cls-2" d="M637.46,435.42a35.3,35.3,0,0,1-10.81,1.5c-13.82,0-22-9.61-22-25S612.93,387,626.55,387c11.31,0,18.12,5.51,18.12,14.82,0,7-4.41,11.11-13.42,12.62l-19.52,3.2c1.3,8.41,6.71,13.32,14.92,13.32a30.37,30.37,0,0,0,9.31-1.3l3-.9a1,1,0,0,1,1.2.7l1.2,4a0.82,0.82,0,0,1-.7,1.1Zm-7.31-26.53c5.31-.9,8-3.2,8-7,0-5.61-4.31-8.91-11.72-8.91-9.31,0-14.92,6.31-15.22,19.13Z" transform="translate(-298.23 -356)"/><path class="cls-2" d="M653.58,394.76c0.3,1,.9,1,1.6.2,3.8-5.31,8.21-8,15.12-8,7.11,0,11.51,4.11,13.72,9,0.7,1.1,1.5.9,2.2,0.1,4.21-6.51,9.41-9.11,16.12-9.11,10.31,0,16.42,7.41,16.42,19.43V435a0.8,0.8,0,0,1-.9.9h-4.71a0.8,0.8,0,0,1-.9-0.9V406.88c0-8.71-3.71-13.92-10.51-13.92-10.51,0-14.92,8.41-14.92,20.13V435a0.8,0.8,0,0,1-.9.9h-4.71a0.8,0.8,0,0,1-.9-0.9V406.78c0-8.61-3.9-13.82-10.61-13.82-10.51,0-14.92,8.41-14.92,20.13V435a0.8,0.8,0,0,1-.9.9h-4.71a0.8,0.8,0,0,1-.9-0.9V388.86a0.8,0.8,0,0,1,.9-0.9h3.1a0.92,0.92,0,0,1,1,.9Z" transform="translate(-298.23 -356)"/><path class="cls-2" d="M728.87,394.86c0.2,0.9.8,1,1.4,0.1a17.83,17.83,0,0,1,15.32-8c12.82,0,20.43,9.51,20.43,24.93s-8,25-21.63,25a24.65,24.65,0,0,1-11.41-2.4l-3-1.4v23a0.8,0.8,0,0,1-.9.9h-4.71a0.8,0.8,0,0,1-.9-0.9V388.86a0.8,0.8,0,0,1,.9-0.9h3.1a0.92,0.92,0,0,1,1,.9ZM734,428.81a22.94,22.94,0,0,0,10.21,2.1c9.61,0,15.32-7.11,15.32-19,0-11.71-5.41-18.92-14.62-18.92-9.91,0-15,8.61-15,20V426.8Z" transform="translate(-298.23 -356)"/><path class="cls-2" d="M794.45,392.06a0.8,0.8,0,0,1-.9.9c-10.71.5-16.82,9.51-16.82,26.43V435a0.8,0.8,0,0,1-.9.9h-4.71a0.8,0.8,0,0,1-.9-0.9V388.86a0.8,0.8,0,0,1,.9-0.9h3.1a0.92,0.92,0,0,1,1,.9l0.7,7.51c0.2,0.8.8,1,1.3,0.2,3.8-6,8.71-9.31,16.32-9.61a0.8,0.8,0,0,1,.9.9v4.21Z" transform="translate(-298.23 -356)"/><path class="cls-2" d="M826.45,435.42a35.3,35.3,0,0,1-10.81,1.5c-13.82,0-22-9.61-22-25S801.92,387,815.54,387c11.31,0,18.12,5.51,18.12,14.82,0,7-4.41,11.11-13.42,12.62l-19.53,3.2c1.3,8.41,6.71,13.32,14.92,13.32a30.37,30.37,0,0,0,9.31-1.3l3-.9a1,1,0,0,1,1.2.7l1.2,4a0.82,0.82,0,0,1-.7,1.1Zm-7.31-26.53c5.31-.9,8-3.2,8-7,0-5.61-4.31-8.91-11.72-8.91-9.31,0-14.92,6.31-15.22,19.13Z" transform="translate(-298.23 -356)"/><path class="cls-2" d="M845.94,450.74a42.45,42.45,0,0,0,9.91,1.2c9.71,0,15.62-4.41,16.32-13.72,0.2-7.81.2-5.81,0.4-9.21,0.1-.8-0.6-1.1-1.2-0.2a18.54,18.54,0,0,1-15.52,8.11c-12.62,0-20.43-9.61-20.43-24.93,0-15.62,8.21-25,22.23-25a32.14,32.14,0,0,1,12.52,2.6l7.21,3.2a1,1,0,0,1,.7,1v43.66c0,13-7.61,20.63-22,20.63a46.38,46.38,0,0,1-11.42-1.5l-4.41-1.2a0.84,0.84,0,0,1-.6-1.2l1.3-4a0.78,0.78,0,0,1,1.1-.5Zm21.53-55.57a22.77,22.77,0,0,0-10-2.2c-9.81.1-15.52,6.91-15.52,18.92,0,11.21,5.11,19,14.52,19,10,0,15.12-8.41,15.12-20.13V397.07Z" transform="translate(-298.23 -356)"/><path class="cls-2" d="M924.64,411.88c0,15.42-8.31,25-21.83,25S881,427.3,881,411.88,889.29,387,902.81,387,924.64,396.57,924.64,411.88Zm-37.15,0c0,11.92,5.71,19,15.32,19s15.42-7.11,15.42-19S912.42,393,902.81,393,887.49,400.07,887.49,411.88Z" transform="translate(-298.23 -356)"/><path class="cls-2" d="M937.69,412.39c-7.41-1.9-10.81-5.81-10.81-12.42,0-8.11,6.31-13,17.12-13a43.29,43.29,0,0,1,11.71,1.5l3.91,1.2a0.84,0.84,0,0,1,.6,1.2l-1.1,3.9a0.84,0.84,0,0,1-1.2.6l-3.8-1.1a37.94,37.94,0,0,0-10-1.3c-6.81,0-10.71,2.8-10.71,7,0,3.5,1.9,5.71,6.41,7l11.62,3.3c7.81,2,11.21,6.21,11.21,12.72,0,8.71-6.71,13.92-18.22,13.92a44.47,44.47,0,0,1-15.12-2.3l-2.7-.9a0.84,0.84,0,0,1-.6-1.2l1.4-4a0.78,0.78,0,0,1,1.1-.5l2.6,0.9a41,41,0,0,0,13.32,2c7.41,0,11.72-3,11.72-7.91,0-3.7-2.1-5.91-6.71-7.31Z" transform="translate(-298.23 -356)"/><path class="cls-3" d="M342,437v19a5,5,0,0,0,4.77,5h0.17a5.26,5.26,0,0,0,5.05-5V437H342Z" transform="translate(-298.23 -356)"/><path class="cls-4" d="M389.36,356.23h-31.1a4.52,4.52,0,0,0,0,9H378l-3.13,3.13-4.28,4.28,4.92,2.76,1.94,4,7.35-7.35v19.78a4.52,4.52,0,0,0,4.52,4.52h0a4.52,4.52,0,0,0,4.52-4.52v-31.1A4.52,4.52,0,0,0,389.36,356.23Z" transform="translate(-298.23 -356)"/><path class="cls-2" d="M365.8,375a9.25,9.25,0,0,1,9.2,9.41v39.18a9.42,9.42,0,0,1-9.41,9.41H326.41a9.42,9.42,0,0,1-9.41-9.41V384.41a9.42,9.42,0,0,1,9.41-9.41H366m-0.41-4H326.41A13.41,13.41,0,0,0,313,384.41v39.18A13.41,13.41,0,0,0,326.41,437h39.18A13.41,13.41,0,0,0,379,423.59V384.41A13.41,13.41,0,0,0,365.59,371h0Z" transform="translate(-298.23 -356)"/><path class="cls-3" d="M328.3,447.44a4.72,4.72,0,0,0,4.72,4.72H360.7a4.72,4.72,0,0,0,4.72-4.72v-0.17a4.72,4.72,0,0,0-4.72-4.72H333a4.72,4.72,0,0,0-4.72,4.72v0.17Z" transform="translate(-298.23 -356)"/><path class="cls-2" d="M362.63,388.56H331.09a1.86,1.86,0,0,0,0,3.72h31.54A1.86,1.86,0,0,0,362.63,388.56Z" transform="translate(-298.23 -356)"/><path class="cls-5" d="M362.63,402H331.09a1.86,1.86,0,0,0,0,3.72h31.54A1.86,1.86,0,0,0,362.63,402Z" transform="translate(-298.23 -356)"/><path class="cls-5" d="M362.63,415.45H331.09a1.86,1.86,0,0,0,0,3.72h31.54A1.86,1.86,0,0,0,362.63,415.45Z" transform="translate(-298.23 -356)"/><path class="cls-6" d="M338.36,360.75a4.52,4.52,0,0,0-4.52-4.52h-31.1a4.52,4.52,0,0,0-4.52,4.52V391.5c0,0.05,0,.1,0,0.15v0.2a4.52,4.52,0,0,0,4.52,4.52h0a4.5,4.5,0,0,0,3.27-1.42l0.17-.14,30.54-30.54c0.07-.07.11-0.14,0.17-0.21A4.49,4.49,0,0,0,338.36,360.75Zm-31.1,18.17v-9.13a4.52,4.52,0,0,1,4.52-4.52h9.13a0.71,0.71,0,0,1,.5,1.21L314.95,373l-6.47,6.47A0.71,0.71,0,0,1,307.27,378.92Z" transform="translate(-298.23 -356)"/></svg>