<?xml version="1.0" ?><!DOCTYPE svg  PUBLIC '-//W3C//DTD SVG 1.1//EN'  'http://www.w3.org/Graphics/SVG/1.1/DTD/svg11.dtd'><svg enable-background="new 0 0 128 128" height="128px" id="Layer_1" version="1.1" viewBox="0 0 128 128" width="128px" xml:space="preserve" xmlns="http://www.w3.org/2000/svg" xmlns:xlink="http://www.w3.org/1999/xlink"><path d="M118.975,105.396L98.646,85.068c5.603-8.161,8.9-18.067,8.897-28.689  c0.005-13.972-5.692-26.713-14.854-35.86c-9.146-9.161-21.887-14.858-35.86-14.854c-13.972-0.004-26.713,5.692-35.858,14.854  C11.81,29.665,6.114,42.406,6.118,56.379C6.114,70.353,11.81,83.093,20.972,92.238c9.146,9.162,21.887,14.859,35.858,14.853  c10.157,0.004,19.654-3.015,27.601-8.175l20.512,20.511c3.875,3.878,10.157,3.878,14.031,0  C122.852,115.553,122.852,109.271,118.975,105.396z M35.004,78.206c-5.601-5.616-9.036-13.272-9.041-21.827  c0.005-8.555,3.44-16.21,9.042-21.827c5.617-5.602,13.271-9.037,21.825-9.042c8.556,0.005,16.21,3.44,21.828,9.041  c5.601,5.618,9.036,13.272,9.04,21.828c-0.004,8.555-3.439,16.211-9.04,21.827c-5.617,5.602-13.271,9.036-21.828,9.04  C48.276,87.242,40.622,83.808,35.004,78.206z" fill="#adddd1"/></svg>